<?xml version="1.0" encoding="UTF-8"?>
<svg id="Layer_1" data-name="Layer 1" xmlns="http://www.w3.org/2000/svg" viewBox="0 0 50 6.14">
  <defs>
    <style>
      .cls-1 {
        fill: #fff5ee;
      }
    </style>
  </defs>
  <path class="cls-1" d="m0,4.25c0-1.03.84-1.87,1.87-1.87.3,0,1.2.09,1.53,1.03l-.58.32v-.14c0-.87-.58-1.1-.9-1.1h-.05c-.77.06-1.25.78-1.25,1.76s.56,1.74,1.25,1.78h.06c.41,0,.85-.22,1.14-.6l.07.08c-.52.6-.99.61-1.27.61C.84,6.12,0,5.28,0,4.25Z"/>
  <path class="cls-1" d="m6.26,5.58c-.07.09-.14.16-.18.19-.22.21-.51.36-.93.36-.08,0-.16,0-.24-.02-.62-.08-1.03-.49-1.03-.95,0-.06,0-.11.02-.17.16-.74.94-.95,1.51-1.03.21-.03.69-.07.87-.36.04-.06.06-.16.06-.27,0-.36-.22-.86-.79-.86h-.05c-.28,0-.84.26-.84,1.16v.06l-.59-.25c.21-.77.99-1.04,1.44-1.06h.06c.59,0,.99.24,1.12.56.03.07.05.14.05.22,0,.32-.29.65-1.05.88-.49.16-1.07.32-1.16.95v.11c0,.29.11.85.71.9h.09c.31,0,.56-.14.82-.42.28-.31.77-1.16.82-1.23.31-.51.61-1.04.84-1.32.2-.21.58-.65,1.38-.65h.06c.24,0,1.09.13,1.39.91l-.53.34v-.11c0-.73-.47-.99-.87-1.02h-.13c-.69,0-1.1.45-1.24.63-.2.24-.46.66-.57.84l-.47.8v.48c0,.13,0,.33.02.45.03.15.14.24.28.24,0,0-.17.19-.43.19-.21,0-.42-.1-.44-.55Zm2.94.55c-.93-.02-1.42-.65-1.58-1.01l.6-.36c.03,1.18.77,1.26.97,1.26.47,0,1.23-.18,1.23-.79v-.06c-.06-.75-1.96-.54-2.47-1.37h0c-.02-.06-.07-.18-.07-.32,0-.05,0-.09.02-.14.09-.23.31-.39.31-.39v.11c0,.17.04.29.1.38.5.61,2.39.36,2.48,1.51v.06c0,.63-.72,1.11-1.55,1.11h-.04Z"/>
  <path class="cls-1" d="m12.69,6.12c-.38,0-.75-.1-1.04-.28-.28-.17-.47-.48-.54-.73l.57-.28v.16c0,.93.81,1.02,1,1.03h.07c.45,0,1.15-.21,1.15-.79v-.06c-.07-.86-2.6-.45-2.6-1.84v-.02c.02-.52.57-.92,1.38-.92.32,0,.62.08.87.21.21.12.45.34.56.69l-.54.3v-.17c0-.71-.62-.93-.9-.93h-.02c-.55,0-.97.24-.99.59v.02c0,1.06,2.5.52,2.6,1.86v.06c0,.63-.71,1.11-1.54,1.11h-.04,0Z"/>
  <path class="cls-1" d="m16.97,5.56c-.24.31-.57.56-1.11.56-.08,0-.16,0-.24-.02-.62-.08-1.03-.5-1.03-.95,0-.06,0-.11.02-.17.17-.74.99-.84,1.52-1.01.21-.06.84-.17.85-.38v-.11c0-.36-.09-1-.77-1.02-.27,0-.86.18-.96,1.22l-.54-.28c.36-.86,1.03-1.03,1.48-1.03h.03c1.25.02,1.33.97,1.33,1.41v1.4c0,.09,0,.23.02.36s.08.28.21.31h.04c.06,0,.13-.02.23-.06,0,0-.21.31-.63.31-.21,0-.42-.1-.44-.56v.02Zm0-.16v-1.63c-.41.34-1.63.27-1.75,1.21v.1c0,.28.1.86.71.91h.07c.41,0,.76-.25.97-.59Z"/>
  <path class="cls-1" d="m21.19,6.12s.45-.13.45-.52v-1.35c0-.97-.12-1.73-1.02-1.76h-.02c-.43,0-.92.21-1.22.69v2.42c0,.39.45.52.45.52h-1.46s.44-.13.44-.52v-2.49c0-.39-.45-.5-.45-.5,0,0,.68-.04,1.02-.22v.61c.28-.36.69-.6,1.25-.61h.07c1.22,0,1.51.85,1.51,1.87v1.35c0,.39.45.52.45.52h-1.47Z"/>
  <path class="cls-1" d="m26.08,5.61s-.54.52-1.25.52c-1.03,0-1.87-.84-1.87-1.87s.84-1.88,1.87-1.88c.43,0,.8.15,1.07.39.03.03.09.06.12.06s.06-.02.06-.06V0c.34.18,1.01.22,1.01.22,0,0-.44.11-.44.5v1.87c0,.21-.02.68-.28.68h0c-.33,0-.56-.77-1.42-.77h-.1c-.76.05-1.25.78-1.25,1.76s.57,1.7,1.25,1.75h.09c.47,0,.95-.34,1.39-.74.62-.56,1.33-1.65,1.33-1.65v-.5c0-.39-.44-.5-.44-.5,0,0,.67-.05,1.01-.22v.6c.17-.18.61-.61,1.12-.61h.12c.47.06.73.28.82.47l-.5.47c-.02-.61-.35-.76-.61-.76-.1,0-.2.02-.26.05-.81.32-1.52,1.75-2.24,2.47v.29c0,.39.44.5.44.5h-.09c-.5,0-.92.26-.92.26v-.52h-.03Zm1.11.52s.44-.13.44-.52v-1.53s.13-.24.29-.4c.06-.06.11-.09.16-.09.07,0,.12.07.12.15v1.87c0,.39.45.52.45.52h-1.46Z"/>
  <path class="cls-1" d="m32.97,5.56c-.24.31-.57.56-1.11.56-.08,0-.16,0-.24-.02-.62-.08-1.03-.5-1.03-.95,0-.06,0-.11.02-.17.17-.74.99-.84,1.52-1.01.21-.06.84-.17.85-.38v-.11c0-.36-.09-1-.77-1.02-.27,0-.86.18-.96,1.22l-.54-.28c.36-.86,1.03-1.03,1.48-1.03h.03c1.25.02,1.33.97,1.33,1.41v1.4c0,.09,0,.23.02.36s.08.28.21.31h.04c.06,0,.13-.02.23-.06,0,0-.21.31-.63.31-.21,0-.42-.1-.44-.56v.02Zm0-.16v-1.63c-.41.34-1.63.27-1.75,1.21v.1c0,.28.1.86.71.91h.07c.41,0,.76-.25.97-.59Z"/>
  <path class="cls-1" d="m39.71,6.12s.45-.13.45-.52v-1.35c0-.97-.12-1.73-1.02-1.76h-.02c-.43,0-.92.21-1.22.69v2.42c0,.39.45.52.45.52h-1.46s.44-.13.44-.52v-2.49c0-.39-.45-.5-.45-.5,0,0,.68-.04,1.02-.22v.61c.28-.36.69-.6,1.25-.61h.07c1.22,0,1.51.85,1.51,1.87v1.35c0,.39.45.52.45.52h-1.47Z"/>
  <path class="cls-1" d="m41.49,4.26c0-1.03.84-1.87,1.87-1.87h0c.52,0,1.32.29,1.35.86v.02c0,.23-.24.41-.58.54-.31.11-.68.12-1.01.23-.54.19-.62.67-.62.92v.16c-.04-.15-.06-.28-.06-.39,0-1.14,1.62-.8,1.78-1.53v-.07c0-.23-.21-.62-.84-.62h-.06c-.63.05-1.07.55-1.21,1.29-.03.18-.05.28-.05.47,0,.97.57,1.69,1.25,1.74h.1c1.09,0,1.44-1.3,2.14-2.35v-.54c0-.39-.45-.5-.45-.5,0,0,.68-.04,1.02-.22v.55c.13-.17.58-.56,1.14-.56h.09c.47.05.73.28.82.47l-.5.41v-.09c0-.45-.27-.65-.54-.65h-.02c-.58.02-1,.57-1.17.77-.39.5-.7,1.09-.73,1.15-.45.83-.87,1.69-1.9,1.69s-1.87-.84-1.87-1.87h.05Zm3.66,1.87s.45-.13.45-.52v-1.48s.12-.25.31-.43c.06-.06.1-.08.14-.08.07,0,.12.08.12.17v1.83c0,.39.44.52.44.52h-1.46Z"/>
  <path class="cls-1" d="m48.54,6.12s.45-.13.45-.52v-2.49c0-.39-.45-.5-.45-.5,0,0,.68-.04,1.01-.22v3.22c0,.39.45.52.45.52h-1.46Zm.33-4.56c0-.18.15-.33.33-.33s.33.15.33.33-.14.33-.33.33-.33-.15-.33-.33Z"/>
</svg>